<svg width="86" height="86" viewBox="0 0 86 86" fill="none" xmlns="http://www.w3.org/2000/svg">
<g clip-path="url(#clip0)">
<path d="M67.1471 3.89233H73.788V8.31965C69.0832 8.32116 64.5704 10.1821 61.2337 13.4981C60.7616 12.5802 60.5121 11.5648 60.5063 10.5333C60.5061 6.86605 63.4798 3.89233 67.1471 3.89233Z" fill="#383856"/>
<path d="M73.7879 10.5333C73.7968 14.1916 70.8393 17.1639 67.1823 17.1743C64.6618 17.1801 62.3566 15.7561 61.2336 13.4981C64.5703 10.1836 69.0831 8.32115 73.7879 8.31964V10.5333Z" fill="#FFD33F"/>
<path d="M33.9424 55.544L21.7467 66.5207C20.296 67.8253 20.082 70.0212 21.2524 71.5826C22.5024 73.2487 24.8665 73.5851 26.5311 72.3353C26.5724 72.3043 26.6138 72.2718 26.6551 72.2378L39.8455 61.447L48.7001 52.5924L60.5061 61.447L58.145 77.9667C57.8616 79.9501 59.2415 81.789 61.2248 82.0709C61.3931 82.0946 61.5643 82.1078 61.7355 82.1078H61.8255C63.6229 82.1167 65.1696 80.8402 65.5032 79.0736C66.7045 72.6999 69.3607 58.4957 69.3607 58.4957L57.5547 48.1654L44.273 40.7866L33.9424 55.544Z" fill="#EA3836"/>
<path d="M78.0116 33.5079L75.2638 34.8832L66.4092 23.0772L57.5546 17.1741L38.3697 14.2227L30.0907 22.4708L34.5328 27.5445L41.3212 21.6016L51.6515 24.5531L44.2726 40.7864L57.5544 48.1653L63.4575 31.932L73.7879 43.738L80.9527 40.5696L78.0116 33.5079Z" fill="#91CECE"/>
<path d="M85.7282 34.4804L85.6899 34.3873C84.9033 32.392 82.6484 31.4136 80.6532 32.2002C80.5469 32.243 80.4408 32.2887 80.339 32.3405L78.0118 33.5079L80.9529 40.5694L83.7568 39.3313C85.6117 38.5093 86.4839 36.365 85.7282 34.4804Z" fill="#FFD33F"/>
<path d="M27.3679 25.1832C26.0855 26.4376 26.0633 28.4918 27.3164 29.7742C28.5279 31.0139 30.4995 31.0817 31.7952 29.9306L34.5328 27.5443L30.0907 22.4706L27.3679 25.1832Z" fill="#FFD33F"/>
<path d="M28.0395 11.2712H8.85462V14.2227H28.0395V11.2712Z" fill="#383856"/>
<path d="M5.90308 11.2712H2.95154V14.2227H5.90308V11.2712Z" fill="#383856"/>
<path d="M17.7091 23.0772H14.7575V26.0287H17.7091V23.0772Z" fill="#383856"/>
<path d="M11.806 23.0772H0V26.0287H11.806V23.0772Z" fill="#383856"/>
<path d="M22.1364 34.8833H7.37886V37.8349H22.1364V34.8833Z" fill="#383856"/>
<path d="M28.0395 46.6893H2.95154V49.6409H28.0395V46.6893Z" fill="#383856"/>
<path d="M17.7091 58.4955H5.90308V61.4471H17.7091V58.4955Z" fill="#383856"/>
<path d="M2.95154 58.4955H0V61.4471H2.95154V58.4955Z" fill="#383856"/>
<path d="M13.2819 70.3015H2.95154V73.2531H13.2819V70.3015Z" fill="#383856"/>
<path d="M27.5376 29.9278C28.7596 30.9919 30.5792 30.9919 31.8011 29.9278L34.5328 27.5445L32.8313 25.5994L27.5376 29.9278Z" fill="#FFAC3E"/>
<path d="M41.3212 18.65L32.8283 25.5994L34.5298 27.5443L41.3212 21.6014L51.6516 24.553L53.1272 21.6014L41.3212 18.65Z" fill="#83B2B7"/>
<path d="M74.6956 40.1371L64.9334 28.9803L63.4576 31.9318L73.7879 43.7378L80.9527 40.5694L79.8164 37.8393L74.6956 40.1371Z" fill="#83B2B7"/>
<path d="M79.8164 37.8349L80.9527 40.565L83.7566 39.3269C85.3859 38.6054 86.2861 36.8417 85.9142 35.0988L79.8164 37.8349Z" fill="#FFAC3E"/>
<path d="M50.7911 44.4078L57.5546 48.1651L63.4576 31.9318L64.9334 28.9803L50.7911 44.4078Z" fill="#83B2B7"/>
<path d="M58.6628 80.381C58.6052 80.2881 58.5506 80.1935 58.5019 80.0961C58.5508 80.1892 58.6054 80.2879 58.6628 80.381Z" fill="#EA3836"/>
<path d="M59.6325 81.4244C59.5292 81.3476 59.4303 81.265 59.3374 81.1765C59.4318 81.265 59.5292 81.3476 59.6325 81.4244Z" fill="#EA3836"/>
<path d="M59.0982 80.9536C59.0171 80.8666 58.9505 80.7735 58.8724 80.6806C58.9448 80.7794 59.0171 80.8666 59.0982 80.9536Z" fill="#EA3836"/>
<path d="M58.3427 79.7198C58.3087 79.6268 58.2718 79.5339 58.2452 79.438C58.2718 79.5354 58.3087 79.6268 58.3427 79.7198Z" fill="#EA3836"/>
<path d="M58.1567 78.9702C58.1463 78.8876 58.1272 78.8064 58.1213 78.7223C58.1272 78.8063 58.145 78.8876 58.1567 78.9702Z" fill="#EA3836"/>
<path d="M60.8632 81.9955C60.5089 81.9024 60.1725 81.7565 59.8626 81.5631C60.1725 81.7578 60.5091 81.9039 60.8632 81.9955Z" fill="#EA3836"/>
<path d="M58.5021 80.0961C58.4416 79.9736 58.3883 79.8482 58.3427 79.7198C58.3883 79.8482 58.4416 79.9736 58.5021 80.0961Z" fill="#D62121"/>
<path d="M59.3359 81.1765C59.2547 81.1042 59.1721 81.0288 59.0982 80.9536C59.178 81.0318 59.2547 81.1026 59.3359 81.1765Z" fill="#D62121"/>
<path d="M59.8626 81.5631C59.7858 81.5174 59.7047 81.4775 59.6323 81.4244C59.7047 81.4775 59.786 81.5173 59.8626 81.5631Z" fill="#D62121"/>
<path d="M58.2452 79.438C58.2054 79.2845 58.1759 79.1281 58.1567 78.9702C58.1759 79.1281 58.2054 79.2845 58.2452 79.438Z" fill="#D62121"/>
<path d="M58.1213 78.7223C58.1036 78.47 58.111 78.2175 58.145 77.9668C58.111 78.2175 58.1021 78.4713 58.1213 78.7223Z" fill="#D62121"/>
<path d="M58.8724 80.6806C58.7972 80.5862 58.7278 80.4873 58.6628 80.3855C58.7352 80.4843 58.7972 80.5832 58.8724 80.6806Z" fill="#D62121"/>
<path d="M57.5545 48.1651L50.9136 44.4757L66.409 59.9711L61.2557 82.0544C61.4136 82.084 61.5745 82.1016 61.7353 82.1075H61.8253C63.6227 82.1164 65.1694 80.8399 65.503 79.0733C66.7043 72.6996 69.3605 58.4954 69.3605 58.4954L57.5545 48.1651Z" fill="#D62121"/>
<path d="M36.8939 59.9713L21.4413 71.7877C22.7725 73.3224 25.0805 73.5217 26.6552 72.2392L39.8456 61.4471L48.7003 52.5924L45.7487 51.1167L36.8939 59.9713Z" fill="#D62121"/>
<path d="M72.3121 8.39204V9.05753C72.3121 12.7248 69.3384 15.6985 65.6711 15.6985C64.2795 15.697 62.9247 15.2483 61.8062 14.4204C63.9357 17.3867 68.0664 18.064 71.0327 15.9345C72.7712 14.686 73.7983 12.673 73.7879 10.5333V8.31964C73.2935 8.31964 72.8021 8.35206 72.3121 8.39204Z" fill="#FFAC3E"/>
<path d="M73.7879 3.89233C73.8529 5.52163 73.329 7.11834 72.3121 8.39187C72.8021 8.35206 73.2935 8.31948 73.7879 8.31948V3.89233Z" fill="#202033"/>
</g>
<defs>
<clipPath id="clip0">
<rect width="86" height="86" fill="white"/>
</clipPath>
</defs>
</svg>
